<svg xmlns="http://www.w3.org/2000/svg"  viewBox="0 0 64 64" width="64px" height="64px"><path fill="#7bbeeb" d="M7,51V13c0-3.31,2.69-6,6-6h38c3.31,0,6,2.69,6,6v38c0,3.31-2.69,6-6,6H13C9.69,57,7,54.31,7,51z"/><rect width="50" height="16" x="7" y="36" fill="#ace3ff"/><rect width="50" height="14" x="7" y="22" fill="#85cbf8"/><path fill="#e3f2ff" d="M11,57h42c2.209,0,4-1.791,4-4l0,0c0-1.657-1.343-3-3-3H10c-1.657,0-3,1.343-3,3l0,0	C7,55.209,8.791,57,11,57z"/><path fill="#8d6c9f" d="M51,58H13c-3.86,0-7-3.141-7-7V13c0-3.859,3.14-7,7-7h38c3.86,0,7,3.141,7,7v38	C58,54.859,54.86,58,51,58z M13,8c-2.757,0-5,2.243-5,5v38c0,2.757,2.243,5,5,5h38c2.757,0,5-2.243,5-5V13c0-2.757-2.243-5-5-5H13z"/><path fill="#8d6c9f" d="M47,48c-0.552,0-1,0.448-1,1v2c0,0.552,0.448,1,1,1s1-0.448,1-1v-2C48,48.448,47.552,48,47,48z M52,52c0.552,0,1-0.448,1-1v-2c0-0.552-0.448-1-1-1s-1,0.448-1,1v2C51,51.552,51.448,52,52,52z M32,48c-0.552,0-1,0.448-1,1v2	c0,0.552,0.448,1,1,1s1-0.448,1-1v-2C33,48.448,32.552,48,32,48z M27,48c-0.552,0-1,0.448-1,1v2c0,0.552,0.448,1,1,1s1-0.448,1-1v-2	C28,48.448,27.552,48,27,48z M22,48c-0.552,0-1,0.448-1,1v2c0,0.552,0.448,1,1,1s1-0.448,1-1v-2C23,48.448,22.552,48,22,48z M17,48	c-0.552,0-1,0.448-1,1v2c0,0.552,0.448,1,1,1s1-0.448,1-1v-2C18,48.448,17.552,48,17,48z M12,52c0.552,0,1-0.448,1-1v-2	c0-0.552-0.448-1-1-1s-1,0.448-1,1v2C11,51.552,11.448,52,12,52z M42,48c-0.552,0-1,0.448-1,1v2c0,0.552,0.448,1,1,1s1-0.448,1-1v-2	C43,48.448,42.552,48,42,48z M37,48c-0.552,0-1,0.448-1,1v2c0,0.552,0.448,1,1,1s1-0.448,1-1v-2C38,48.448,37.552,48,37,48z"/><path fill="#fff" d="M51,33.5c0,4.14-3.36,7.5-7.5,7.5h-20c-3.04,0-5.5-2.46-5.5-5.5c0-0.97,0.25-1.88,0.7-2.67	c1.44,0.75,3.07,1.17,4.8,1.17C29.3,34,34,29.3,34,23.5c0-1.22-0.21-2.39-0.6-3.48c3.84,0.16,7.05,2.73,8.17,6.24	C42.19,26.1,42.83,26,43.5,26C47.64,26,51,29.36,51,33.5z"/><path fill="#ffeb9b" d="M33.4,20.02C33.27,20,33.14,20,33,20c-4.97,0-9,4.03-9,9c0,0.35,0.02,0.69,0.06,1.03	C23.88,30.01,23.69,30,23.5,30c-2.07,0-3.87,1.14-4.8,2.83c-3.39-1.74-5.7-5.26-5.7-9.33C13,17.7,17.7,13,23.5,13	C28.08,13,31.97,15.93,33.4,20.02z"/><path fill="#fff4d2" d="M34,23.5C34,29.3,29.3,34,23.5,34c-1.73,0-3.36-0.42-4.8-1.17c0.93-1.69,2.73-2.83,4.8-2.83	c0.19,0,0.38,0.01,0.56,0.03C24.02,29.69,24,29.35,24,29c0-4.97,4.03-9,9-9c0.14,0,0.27,0,0.4,0.02C33.79,21.11,34,22.28,34,23.5z"/><path fill="#8d6c9f" d="M18.699,33.83c-0.154,0-0.31-0.035-0.456-0.11C14.393,31.743,12,27.827,12,23.5	C12,17.159,17.159,12,23.5,12c4.878,0,9.236,3.09,10.844,7.689C34.778,20.904,35,22.188,35,23.5c0,0.553-0.448,1-1,1s-1-0.447-1-1	c0-1.081-0.182-2.139-0.542-3.144C31.128,16.552,27.529,14,23.5,14c-5.238,0-9.5,4.262-9.5,9.5c0,3.573,1.976,6.808,5.157,8.44	c0.492,0.252,0.685,0.855,0.433,1.347C19.413,33.632,19.063,33.83,18.699,33.83z"/><path fill="#8d6c9f" d="M43.5,42h-20c-3.584,0-6.5-2.916-6.5-6.5c0-3.416,2.648-6.225,6-6.481c0-0.006,0-0.012,0-0.019	c0-5.514,4.486-10,10-10c4.062,0,7.657,2.418,9.209,6.104C42.643,25.034,43.074,25,43.5,25c4.687,0,8.5,3.813,8.5,8.5	S48.187,42,43.5,42z M23.5,31c-2.481,0-4.5,2.019-4.5,4.5s2.019,4.5,4.5,4.5h20c3.584,0,6.5-2.916,6.5-6.5	c0-4.129-3.903-7.41-8.171-6.273c-0.515,0.137-1.048-0.155-1.21-0.662C39.556,23.236,36.494,21,33,21c-4.411,0-8,3.589-8,8	c0,0.311,0.022,0.614,0.057,0.915c0.034,0.301-0.069,0.601-0.282,0.815c-0.212,0.216-0.51,0.319-0.812,0.293	C23.811,31.008,23.656,31,23.5,31z"/><path fill="#8d6c9f" d="M31,31.849c-0.252,0-0.505-0.095-0.7-0.285c-0.395-0.387-0.401-1.02-0.015-1.414	c0.742-0.759,1.348-1.626,1.801-2.578c0.237-0.499,0.833-0.711,1.333-0.475c0.499,0.237,0.711,0.834,0.474,1.332	c-0.548,1.153-1.281,2.203-2.179,3.119C31.519,31.748,31.259,31.849,31,31.849z"/></svg>